<svg width="742" height="235" viewBox="0 0 742 235" fill="none" xmlns="http://www.w3.org/2000/svg">
<path d="M275.659 51.4773C275.091 49.6364 274.307 47.9886 273.307 46.5341C272.33 45.0568 271.148 43.7955 269.761 42.75C268.398 41.7045 266.83 40.9205 265.057 40.3977C263.284 39.8523 261.352 39.5795 259.261 39.5795C255.511 39.5795 252.17 40.5227 249.239 42.4091C246.307 44.2955 244 47.0682 242.318 50.7273C240.659 54.3636 239.83 58.7955 239.83 64.0227C239.83 69.2955 240.659 73.7614 242.318 77.4205C243.977 81.0795 246.284 83.8636 249.239 85.7727C252.193 87.6591 255.625 88.6023 259.534 88.6023C263.08 88.6023 266.148 87.9205 268.739 86.5568C271.352 85.1932 273.364 83.2614 274.773 80.7614C276.182 78.2386 276.886 75.2841 276.886 71.8977L279.75 72.3409H260.795V62.4545H289.125V70.8409C289.125 76.8182 287.852 81.9886 285.307 86.3523C282.761 90.7159 279.261 94.0795 274.807 96.4432C270.352 98.7841 265.239 99.9545 259.466 99.9545C253.034 99.9545 247.386 98.5114 242.523 95.625C237.682 92.7159 233.898 88.5909 231.17 83.25C228.466 77.8864 227.114 71.5227 227.114 64.1591C227.114 58.5227 227.909 53.4886 229.5 49.0568C231.114 44.625 233.364 40.8636 236.25 37.7727C239.136 34.6591 242.523 32.2955 246.409 30.6818C250.295 29.0455 254.523 28.2273 259.091 28.2273C262.955 28.2273 266.557 28.7955 269.898 29.9318C273.239 31.0455 276.205 32.6364 278.795 34.7045C281.409 36.7727 283.557 39.2273 285.239 42.0682C286.92 44.9091 288.023 48.0455 288.545 51.4773H275.659ZM293.957 29.1818H308.241L325.321 60.0682H326.003L343.082 29.1818H357.366L331.969 72.9545V99H319.355V72.9545L293.957 29.1818ZM366.324 29.1818H381.801L402.528 79.7727H403.347L424.074 29.1818H439.551V99H427.415V51.0341H426.767L407.472 98.7955H398.403L379.108 50.9318H378.46V99H366.324V29.1818ZM488.966 54.36H500.486V73.944C500.486 76.568 500.166 78.616 499.526 80.088C498.886 81.56 497.574 82.712 495.59 83.544C493.734 84.376 491.526 84.856 488.966 84.984C486.406 85.112 483.43 85.176 480.038 85.176C479.846 83.64 479.398 81.912 478.694 79.992C477.99 78.008 477.286 76.312 476.582 74.904C477.99 74.904 479.398 74.936 480.806 75C482.278 75 483.59 75 484.742 75C485.894 74.936 486.694 74.904 487.142 74.904C487.846 74.904 488.326 74.84 488.582 74.712C488.838 74.52 488.966 74.168 488.966 73.656V54.36ZM469.19 56.952L481.094 60.792C479.366 63.608 477.286 66.392 474.854 69.144C472.486 71.896 469.99 74.456 467.366 76.824C464.806 79.192 462.278 81.272 459.782 83.064C459.078 82.296 458.086 81.432 456.806 80.472C455.59 79.448 454.342 78.456 453.062 77.496C451.846 76.536 450.758 75.768 449.798 75.192C453.574 73.08 457.222 70.392 460.742 67.128C464.262 63.8 467.078 60.408 469.19 56.952ZM517.382 59.736L529.19 63.48C526.63 70.52 523.398 76.536 519.494 81.528C515.654 86.52 511.046 90.744 505.67 94.2C500.358 97.592 494.246 100.344 487.334 102.456C480.422 104.632 472.614 106.392 463.91 107.736C463.334 106.008 462.502 104.12 461.414 102.072C460.39 100.024 459.27 98.264 458.054 96.792C468.806 95.576 478.086 93.624 485.894 90.936C493.702 88.248 500.198 84.408 505.382 79.416C510.566 74.424 514.566 67.864 517.382 59.736ZM451.046 44.568H537.83V55.512H451.046V44.568ZM495.878 26.616H527.75V37.464H495.878V26.616ZM488.87 17.4H500.677V51.48H488.87V17.4ZM464.198 23.736H475.91V50.52H464.198V23.736ZM584.198 17.4H596.102V33.144H584.198V17.4ZM584.198 74.328H596.102V99.96H584.198V74.328ZM573.926 35.544H585.926C585.478 39.704 584.742 43.48 583.718 46.872C582.694 50.264 581.062 53.304 578.822 55.992C576.582 58.68 573.478 61.048 569.51 63.096C565.542 65.08 560.422 66.744 554.15 68.088C553.83 67.128 553.318 66.04 552.614 64.824C551.974 63.608 551.238 62.424 550.406 61.272C549.574 60.056 548.774 59.096 548.006 58.392C553.446 57.432 557.798 56.28 561.062 54.936C564.326 53.528 566.822 51.896 568.55 50.04C570.342 48.184 571.59 46.04 572.294 43.608C573.062 41.176 573.606 38.488 573.926 35.544ZM595.046 35.352H606.47V51.768C606.47 53.112 606.662 53.944 607.046 54.264C607.494 54.584 608.454 54.744 609.926 54.744C610.31 54.744 610.854 54.744 611.558 54.744C612.326 54.744 613.158 54.744 614.054 54.744C614.95 54.744 615.814 54.744 616.646 54.744C617.478 54.744 618.086 54.744 618.47 54.744C619.302 54.744 619.91 54.584 620.294 54.264C620.742 53.88 621.062 53.208 621.254 52.248C621.446 51.224 621.606 49.72 621.734 47.736C622.502 48.312 623.462 48.856 624.614 49.368C625.766 49.88 626.982 50.36 628.262 50.808C629.542 51.192 630.662 51.48 631.622 51.672C631.238 55 630.598 57.624 629.702 59.544C628.806 61.4 627.558 62.712 625.958 63.48C624.358 64.184 622.246 64.536 619.622 64.536C619.046 64.536 618.246 64.536 617.222 64.536C616.198 64.536 615.078 64.536 613.862 64.536C612.71 64.536 611.59 64.536 610.502 64.536C609.478 64.536 608.71 64.536 608.198 64.536C604.614 64.536 601.862 64.152 599.942 63.384C598.086 62.552 596.806 61.208 596.102 59.352C595.398 57.496 595.046 55 595.046 51.864V35.352ZM549.35 26.04H631.814V46.008H619.91V36.504H560.678V47.832H549.35V26.04ZM558.374 69.912H624.518V80.184H558.374V69.912ZM548.294 94.584H632.678V105.048H548.294V94.584ZM673.286 76.056H699.494V84.216H673.286V76.056ZM672.614 61.752H704.966V98.712H672.614V90.168H694.118V70.296H672.614V61.752ZM667.814 61.752H678.278V103.608H667.814V61.752ZM651.782 34.488H675.782V42.264H651.782V34.488ZM696.326 34.488H720.518V42.264H696.326V34.488ZM715.814 21.144H727.43V94.008C727.43 97.08 727.078 99.512 726.374 101.304C725.67 103.096 724.358 104.472 722.438 105.432C720.454 106.392 718.022 107 715.142 107.256C712.326 107.512 708.838 107.64 704.678 107.64C704.55 106.488 704.294 105.208 703.91 103.8C703.526 102.392 703.078 100.952 702.566 99.48C702.054 98.072 701.51 96.856 700.934 95.832C702.662 95.96 704.358 96.056 706.022 96.12C707.75 96.12 709.286 96.12 710.63 96.12C712.038 96.056 712.998 96.024 713.51 96.024C714.406 96.024 715.014 95.864 715.334 95.544C715.654 95.224 715.814 94.648 715.814 93.816V21.144ZM652.646 21.144H683.078V55.992H652.646V47.736H672.23V29.496H652.646V21.144ZM721.958 21.144V29.496H700.454V47.928H721.958V56.184H689.51V21.144H721.958ZM646.022 21.144H657.446V107.64H646.022V21.144Z" fill="black"/>
<path d="M248.234 196.352C244.793 196.352 241.835 195.91 239.36 195.024C236.885 194.159 234.822 193.012 233.172 191.583C231.542 190.174 230.244 188.665 229.278 187.055L234.953 183.071C235.597 183.916 236.412 184.882 237.398 185.969C238.384 187.076 239.732 188.031 241.443 188.836C243.173 189.661 245.437 190.074 248.234 190.074C251.977 190.074 255.066 189.168 257.501 187.357C259.936 185.546 261.153 182.709 261.153 178.845V169.428H260.55C260.027 170.273 259.282 171.319 258.316 172.567C257.37 173.794 256.002 174.891 254.211 175.857C252.44 176.803 250.045 177.276 247.027 177.276C243.284 177.276 239.924 176.39 236.945 174.619C233.987 172.848 231.643 170.273 229.912 166.892C228.202 163.511 227.347 159.406 227.347 154.577C227.347 149.828 228.182 145.692 229.852 142.171C231.522 138.629 233.846 135.892 236.825 133.961C239.803 132.009 243.244 131.033 247.148 131.033C250.166 131.033 252.561 131.536 254.332 132.542C256.123 133.528 257.491 134.655 258.437 135.923C259.403 137.17 260.147 138.196 260.67 139.001H261.395V131.636H268.277V179.328C268.277 183.312 267.371 186.552 265.56 189.048C263.769 191.563 261.355 193.404 258.316 194.571C255.298 195.759 251.937 196.352 248.234 196.352ZM247.993 170.876C250.85 170.876 253.265 170.222 255.237 168.914C257.209 167.606 258.708 165.725 259.735 163.27C260.761 160.815 261.274 157.877 261.274 154.456C261.274 151.116 260.771 148.167 259.765 145.612C258.759 143.056 257.27 141.054 255.298 139.605C253.326 138.156 250.891 137.432 247.993 137.432C244.974 137.432 242.459 138.196 240.447 139.726C238.455 141.255 236.955 143.308 235.949 145.884C234.963 148.459 234.47 151.317 234.47 154.456C234.47 157.676 234.973 160.523 235.979 162.998C237.006 165.453 238.515 167.385 240.507 168.794C242.519 170.182 245.015 170.876 247.993 170.876ZM285.905 195.386C284.697 195.386 283.621 195.286 282.675 195.085C281.729 194.903 281.075 194.722 280.713 194.541L282.524 188.263C284.255 188.705 285.784 188.866 287.112 188.746C288.44 188.625 289.618 188.031 290.644 186.965C291.69 185.918 292.646 184.218 293.511 181.864L294.839 178.241L277.695 131.636H285.422L298.22 168.582H298.703L311.501 131.636H319.229L299.548 184.761C298.663 187.156 297.566 189.138 296.258 190.708C294.95 192.297 293.431 193.475 291.7 194.239C289.99 195.004 288.058 195.386 285.905 195.386ZM328.631 178V131.636H335.513V138.881H336.117C337.083 136.406 338.642 134.484 340.796 133.115C342.949 131.727 345.535 131.033 348.553 131.033C351.612 131.033 354.157 131.727 356.19 133.115C358.242 134.484 359.842 136.406 360.989 138.881H361.472C362.659 136.486 364.44 134.584 366.815 133.176C369.189 131.747 372.037 131.033 375.357 131.033C379.502 131.033 382.893 132.331 385.529 134.926C388.165 137.502 389.483 141.517 389.483 146.97V178H382.36V146.97C382.36 143.549 381.424 141.104 379.553 139.635C377.681 138.166 375.478 137.432 372.942 137.432C369.682 137.432 367.157 138.418 365.366 140.39C363.575 142.342 362.68 144.817 362.68 147.815V178H355.435V146.246C355.435 143.61 354.58 141.487 352.869 139.877C351.159 138.247 348.956 137.432 346.259 137.432C344.408 137.432 342.677 137.925 341.067 138.911C339.478 139.897 338.19 141.265 337.204 143.016C336.238 144.747 335.755 146.749 335.755 149.023V178H328.631ZM594.724 178V116.182H601.848V139.001H602.451C602.975 138.196 603.699 137.17 604.625 135.923C605.57 134.655 606.919 133.528 608.669 132.542C610.44 131.536 612.835 131.033 615.853 131.033C619.757 131.033 623.198 132.009 626.176 133.961C629.155 135.913 631.479 138.679 633.149 142.261C634.819 145.843 635.654 150.069 635.654 154.939C635.654 159.849 634.819 164.105 633.149 167.707C631.479 171.289 629.165 174.066 626.207 176.038C623.249 177.99 619.838 178.966 615.974 178.966C612.996 178.966 610.611 178.473 608.82 177.487C607.029 176.481 605.651 175.344 604.685 174.076C603.719 172.788 602.975 171.722 602.451 170.876H601.606V178H594.724ZM601.727 154.818C601.727 158.32 602.24 161.408 603.266 164.085C604.293 166.741 605.792 168.824 607.764 170.333C609.736 171.822 612.151 172.567 615.008 172.567C617.986 172.567 620.472 171.782 622.464 170.212C624.476 168.623 625.985 166.49 626.991 163.813C628.018 161.117 628.531 158.118 628.531 154.818C628.531 151.558 628.028 148.62 627.022 146.004C626.036 143.368 624.536 141.285 622.524 139.756C620.532 138.207 618.027 137.432 615.008 137.432C612.11 137.432 609.676 138.166 607.703 139.635C605.731 141.084 604.242 143.117 603.236 145.733C602.23 148.328 601.727 151.357 601.727 154.818ZM665.386 178.966C661.201 178.966 657.528 177.97 654.369 175.978C651.23 173.985 648.775 171.198 647.004 167.616C645.253 164.035 644.378 159.849 644.378 155.06C644.378 150.23 645.253 146.014 647.004 142.412C648.775 138.81 651.23 136.013 654.369 134.021C657.528 132.029 661.201 131.033 665.386 131.033C669.572 131.033 673.234 132.029 676.374 134.021C679.533 136.013 681.988 138.81 683.739 142.412C685.509 146.014 686.395 150.23 686.395 155.06C686.395 159.849 685.509 164.035 683.739 167.616C681.988 171.198 679.533 173.985 676.374 175.978C673.234 177.97 669.572 178.966 665.386 178.966ZM665.386 172.567C668.566 172.567 671.182 171.752 673.234 170.122C675.287 168.492 676.806 166.349 677.792 163.692C678.778 161.036 679.271 158.159 679.271 155.06C679.271 151.961 678.778 149.073 677.792 146.397C676.806 143.72 675.287 141.557 673.234 139.907C671.182 138.257 668.566 137.432 665.386 137.432C662.207 137.432 659.591 138.257 657.538 139.907C655.486 141.557 653.967 143.72 652.98 146.397C651.994 149.073 651.501 151.961 651.501 155.06C651.501 158.159 651.994 161.036 652.98 163.692C653.967 166.349 655.486 168.492 657.538 170.122C659.591 171.752 662.207 172.567 665.386 172.567ZM716.104 178.966C711.919 178.966 708.246 177.97 705.087 175.978C701.948 173.985 699.493 171.198 697.722 167.616C695.971 164.035 695.096 159.849 695.096 155.06C695.096 150.23 695.971 146.014 697.722 142.412C699.493 138.81 701.948 136.013 705.087 134.021C708.246 132.029 711.919 131.033 716.104 131.033C720.29 131.033 723.952 132.029 727.091 134.021C730.251 136.013 732.706 138.81 734.456 142.412C736.227 146.014 737.113 150.23 737.113 155.06C737.113 159.849 736.227 164.035 734.456 167.616C732.706 171.198 730.251 173.985 727.091 175.978C723.952 177.97 720.29 178.966 716.104 178.966ZM716.104 172.567C719.284 172.567 721.9 171.752 723.952 170.122C726.005 168.492 727.524 166.349 728.51 163.692C729.496 161.036 729.989 158.159 729.989 155.06C729.989 151.961 729.496 149.073 728.51 146.397C727.524 143.72 726.005 141.557 723.952 139.907C721.9 138.257 719.284 137.432 716.104 137.432C712.925 137.432 710.309 138.257 708.256 139.907C706.204 141.557 704.684 143.72 703.698 146.397C702.712 149.073 702.219 151.961 702.219 155.06C702.219 158.159 702.712 161.036 703.698 163.692C704.684 166.349 706.204 168.492 708.256 170.122C710.309 171.752 712.925 172.567 716.104 172.567Z" fill="black" fill-opacity="0.67"/>
<path d="M6.01161 52.1829L97.9182 1.79809C98.824 1.30152 99.9215 1.30588 100.823 1.80965L190.713 52.0232C191.305 52.3536 191.767 52.8745 192.025 53.5011L196.211 63.6776C196.36 64.0397 196.436 64.4274 196.436 64.8188V140.928C196.436 141.182 196.404 141.434 196.341 141.679L191.948 158.687C191.743 159.482 191.222 160.157 190.505 160.557L106.177 207.62C105.73 207.869 105.226 208 104.715 208H91.3755C90.8857 208 90.4033 207.88 89.9706 207.651L10.2596 165.401C9.91928 165.22 9.6169 164.976 9.36894 164.681L5.8334 160.479C5.53018 160.119 5.31608 159.692 5.20842 159.234L1.07942 141.648C1.02665 141.423 1 141.193 1 140.962V59.9449C1 59.3481 1.178 58.7648 1.51124 58.2697L4.965 53.1384C5.23256 52.7409 5.59144 52.4133 6.01161 52.1829Z" fill="black" stroke="black"/>
<path fill-rule="evenodd" clip-rule="evenodd" d="M96.9803 12.1164C97.8774 11.5966 98.9794 11.5769 99.8945 12.0643L173.5 51.2641C175.568 52.3657 175.632 55.3075 173.612 56.4969L134.074 79.7864L102.948 99.5792C102.051 100.15 100.919 100.203 99.9722 99.7185L92.6288 95.9625C90.532 94.89 90.4322 91.9301 92.4521 90.7188L124.5 71.5L150.35 56.4817C152.381 55.3017 152.33 52.3511 150.259 51.2427L99.878 24.2788C98.9719 23.7938 97.8808 23.8064 96.9862 24.3121L26.5238 64.1387C25.5822 64.6709 25 65.6688 25 66.7504V149.674C25 150.784 25.613 151.804 26.5935 152.324L83.4079 182.48C85.406 183.54 87.8144 182.092 87.8144 179.83V134.759C87.8144 133.615 87.1639 132.57 86.1372 132.066L53.3256 115.945C51.8385 115.215 51.2253 113.417 51.9559 111.93L53.7198 108.34C54.4504 106.853 56.2482 106.24 57.7352 106.97L96.1372 125.837C97.1639 126.342 97.8144 127.386 97.8144 128.53V196.459C97.8144 198.721 95.406 200.169 93.4079 199.109L16.5935 158.338C15.613 157.817 15 156.798 15 155.688V61.3473C15 60.2772 15.57 59.2881 16.496 58.7515L96.9803 12.1164Z" fill="white"/>
<path fill-rule="evenodd" clip-rule="evenodd" d="M172.967 110.237C172.947 108.093 170.025 107.478 169.144 109.433L149.632 152.711C149.064 153.973 147.417 154.289 146.421 153.329L127.462 135.054C126.192 133.83 124.074 134.73 124.074 136.494V185.351C124.074 186.063 123.696 186.72 123.082 187.079L115.082 191.746C113.748 192.523 112.074 191.562 112.074 190.018V108.901C112.074 104.401 117.554 102.191 120.676 105.433L142.54 128.139C143.505 129.14 145.172 128.876 145.78 127.626L171.701 74.2883C172.707 72.2174 174.998 71.1015 177.249 71.5855L180.936 72.3782C183.24 72.8735 184.885 74.9101 184.885 77.2665V151.862C184.885 152.558 184.523 153.205 183.929 153.568L176.427 158.157C175.101 158.969 173.397 158.024 173.383 156.469L172.967 110.237Z" fill="white"/>
<path d="M6.01161 52.1829L97.9182 1.79809C98.824 1.30152 99.9215 1.30588 100.823 1.80965L190.713 52.0232C191.305 52.3536 191.767 52.8745 192.025 53.5011L196.211 63.6776C196.36 64.0397 196.436 64.4274 196.436 64.8188V140.928C196.436 141.182 196.404 141.434 196.341 141.679L191.948 158.687C191.743 159.482 191.222 160.157 190.505 160.557L106.177 207.62C105.73 207.869 105.226 208 104.715 208H91.3755C90.8857 208 90.4033 207.88 89.9706 207.651L10.2596 165.401C9.91928 165.22 9.6169 164.976 9.36894 164.681L5.8334 160.479C5.53018 160.119 5.31608 159.692 5.20842 159.234L1.07942 141.648C1.02665 141.423 1 141.193 1 140.962V59.9449C1 59.3481 1.178 58.7648 1.51124 58.2697L4.965 53.1384C5.23256 52.7409 5.59144 52.4133 6.01161 52.1829Z" fill="black" stroke="black"/>
<path fill-rule="evenodd" clip-rule="evenodd" d="M96.9803 12.1164C97.8774 11.5966 98.9794 11.5769 99.8945 12.0643L173.5 51.2641C175.568 52.3657 175.632 55.3075 173.612 56.4969L134.074 79.7864L102.948 99.5792C102.051 100.15 100.919 100.203 99.9722 99.7185L92.6288 95.9625C90.532 94.89 90.4322 91.9301 92.4521 90.7188L124.5 71.5L150.35 56.4817C152.381 55.3017 152.33 52.3511 150.259 51.2427L99.878 24.2788C98.9719 23.7938 97.8808 23.8064 96.9862 24.3121L26.5238 64.1387C25.5822 64.6709 25 65.6688 25 66.7504V149.674C25 150.784 25.613 151.804 26.5935 152.324L83.4079 182.48C85.406 183.54 87.8144 182.092 87.8144 179.83V134.759C87.8144 133.615 87.1639 132.57 86.1372 132.066L53.3256 115.945C51.8385 115.215 51.2253 113.417 51.9559 111.93L53.7198 108.34C54.4504 106.853 56.2482 106.24 57.7352 106.97L96.1372 125.837C97.1639 126.342 97.8144 127.386 97.8144 128.53V196.459C97.8144 198.721 95.406 200.169 93.4079 199.109L16.5935 158.338C15.613 157.817 15 156.798 15 155.688V61.3473C15 60.2772 15.57 59.2881 16.496 58.7515L96.9803 12.1164Z" fill="white"/>
<path fill-rule="evenodd" clip-rule="evenodd" d="M172.967 110.237C172.947 108.093 170.025 107.478 169.144 109.433L149.632 152.711C149.064 153.973 147.417 154.289 146.421 153.329L127.462 135.054C126.192 133.83 124.074 134.73 124.074 136.494V185.351C124.074 186.063 123.696 186.72 123.082 187.079L115.082 191.746C113.748 192.523 112.074 191.562 112.074 190.018V108.901C112.074 104.401 117.554 102.191 120.676 105.433L142.54 128.139C143.505 129.14 145.172 128.876 145.78 127.626L171.701 74.2883C172.707 72.2174 174.998 71.1015 177.249 71.5855L180.936 72.3782C183.24 72.8735 184.885 74.9101 184.885 77.2665V151.862C184.885 152.558 184.523 153.205 183.929 153.568L176.427 158.157C175.101 158.969 173.397 158.024 173.383 156.469L172.967 110.237Z" fill="white"/>
<path d="M568.36 125.054L456.667 145.415C453.278 146.033 453.432 150.941 456.853 151.345L537.768 160.905C541.129 161.302 541.363 166.092 538.057 166.815L371 203.354" stroke="#F1420D" stroke-width="12"/>
<path d="M556 120.884L443.7 143.89C438.101 145.037 438.497 153.164 444.182 153.761L537 163.5L359 202.884" stroke="#F1600D" stroke-width="10"/>
<path d="M563.36 125.054L450.121 145.311C446.707 145.922 446.879 150.875 450.327 151.247L532.007 160.059C535.379 160.423 535.652 165.225 532.343 165.968L366 203.354" stroke="white" stroke-width="2"/>
</svg>
